<?xml version="1.0" standalone="no"?>
<!DOCTYPE svg PUBLIC "-//W3C//DTD SVG 20010904//EN"
 "http://www.w3.org/TR/2001/REC-SVG-20010904/DTD/svg10.dtd">
<svg version="1.0" xmlns="http://www.w3.org/2000/svg"
 width="512.000000pt" height="512.000000pt" viewBox="0 0 512.000000 512.000000"
 preserveAspectRatio="xMidYMid meet">

<g transform="translate(0.000000,512.000000) scale(0.100000,-0.100000)"
fill="#000000" stroke="none">
<path d="M151 5045 c-53 -16 -107 -66 -132 -120 -18 -39 -19 -117 -19 -2210 0
-1484 3 -2182 11 -2208 13 -47 60 -102 110 -128 32 -16 59 -19 178 -19 151 0
164 4 177 57 5 17 0 33 -13 51 -19 26 -24 27 -129 29 -125 3 -147 7 -168 29
-14 14 -16 226 -16 2180 0 2151 0 2164 20 2184 20 20 33 20 2390 20 2357 0
2370 0 2390 -20 19 -19 20 -33 20 -469 0 -287 4 -459 10 -478 11 -29 45 -53
76 -53 8 0 26 11 39 25 l25 24 0 471 c0 523 1 512 -68 583 -70 72 125 67
-2496 66 -1967 0 -2368 -3 -2405 -14z"/>
<path d="M525 4623 c-44 -23 -74 -53 -96 -95 -18 -36 -19 -72 -19 -913 0 -967
-4 -902 63 -973 63 -66 -71 -62 2087 -62 2158 0 2024 -4 2087 62 67 71 63 6
63 973 0 787 -2 879 -16 908 -23 45 -53 76 -96 98 -36 18 -91 19 -2040 19
-1807 -1 -2006 -2 -2033 -17z m4024 -149 c21 -27 21 -32 21 -865 0 -826 0
-839 -20 -859 -20 -20 -33 -20 -1990 -20 -1957 0 -1970 0 -1990 20 -20 20 -20
33 -20 859 0 833 0 838 21 865 l20 26 1969 0 1969 0 20 -26z"/>
<path d="M1458 4024 c-45 -19 -39 -1 -173 -443 -80 -263 -102 -348 -94 -362
14 -27 62 -49 108 -49 49 0 61 15 86 113 l18 68 125 -3 125 -3 21 -75 c29
-103 29 -103 92 -98 56 5 104 35 104 66 0 25 -221 736 -236 759 -14 23 -70 43
-114 42 -14 0 -42 -7 -62 -15z m112 -375 c22 -79 40 -147 40 -151 0 -5 -39 -8
-86 -8 -70 0 -85 3 -81 14 3 8 23 77 43 155 21 77 40 139 41 137 2 -2 21 -68
43 -147z"/>
<path d="M2186 4008 c-21 -30 -20 -91 2 -117 15 -18 30 -21 107 -23 l90 -3 2
-330 c3 -322 3 -330 24 -347 14 -12 38 -18 69 -18 31 0 55 6 69 18 21 17 21
25 24 347 l2 330 90 3 c77 2 92 5 108 23 21 26 22 87 1 117 -15 22 -17 22
-294 22 -277 0 -279 0 -294 -22z"/>
<path d="M3249 4001 l-29 -29 0 -381 c0 -368 1 -382 20 -401 15 -15 33 -20 73
-20 93 1 91 -4 97 262 l5 231 57 -105 c58 -106 70 -118 112 -118 30 0 49 22
113 133 l53 92 0 -227 c0 -215 1 -229 20 -248 29 -29 117 -28 149 1 l22 21 -3
385 -3 385 -28 24 c-22 18 -40 24 -77 24 -65 0 -92 -25 -166 -155 -31 -55 -63
-110 -71 -123 -14 -23 -16 -20 -91 109 -85 145 -110 169 -180 169 -35 0 -49
-6 -73 -29z"/>
<path d="M4999 3561 l-24 -19 -5 -1505 c-3 -828 -7 -1507 -10 -1510 -29 -26
-85 -27 -1058 -27 -947 0 -1011 -1 -1030 -17 -32 -27 -37 -64 -12 -96 l21 -27
1040 0 c1010 0 1041 1 1078 19 50 26 97 81 110 128 8 26 11 520 11 1531 l0
1493 -25 24 c-29 30 -64 32 -96 6z"/>
<path d="M545 2178 c-48 -17 -94 -56 -116 -100 -29 -56 -24 -150 10 -200 46
-66 83 -83 193 -86 83 -3 98 -6 98 -20 0 -10 -36 -363 -82 -787 -50 -473 -79
-781 -74 -799 11 -43 74 -102 123 -115 30 -8 314 -11 985 -9 899 3 945 4 981
22 52 26 80 69 85 130 2 28 -33 389 -77 801 -45 413 -81 756 -81 763 0 8 21
12 64 12 76 0 110 11 149 48 100 94 86 246 -28 317 l-48 30 -1076 2 c-735 1
-1085 -2 -1106 -9z m215 -155 c0 -10 -3 -35 -6 -55 l-7 -38 -78 0 c-66 0 -82
3 -99 20 -24 24 -25 47 -3 72 13 15 32 18 105 18 77 0 88 -2 88 -17z m970 0
c0 -10 20 -412 45 -893 25 -481 45 -885 45 -897 l0 -23 -549 0 c-385 0 -550 3
-553 11 -2 7 185 1790 191 1817 1 1 186 2 411 2 384 0 410 -1 410 -17z m393
-845 c38 -475 71 -887 74 -915 l6 -53 -117 0 c-64 0 -116 1 -117 3 0 1 -21
413 -47 915 l-47 912 90 0 91 0 67 -862z m389 -43 c53 -495 95 -906 93 -912
-3 -10 -38 -13 -129 -13 -122 0 -126 1 -130 23 -3 12 -34 405 -70 872 -37 468
-69 869 -72 893 l-5 43 108 -3 108 -3 97 -900z m203 881 c11 -17 13 -30 6 -48
-12 -31 -29 -38 -97 -38 -50 0 -54 2 -54 24 0 13 -3 38 -6 55 l-6 31 71 0 c63
0 72 -2 86 -24z"/>
<path d="M3325 2170 c-76 -37 -80 -54 -80 -310 0 -334 -4 -330 330 -330 246 0
264 4 305 72 18 30 20 51 20 259 0 218 -1 227 -23 260 -42 63 -67 69 -302 69
-190 0 -214 -2 -250 -20z m435 -310 l0 -180 -185 0 -185 0 0 180 0 180 185 0
185 0 0 -180z"/>
<path d="M4145 2176 c-16 -7 -41 -26 -55 -41 l-25 -27 -3 -242 -3 -243 27 -32
c49 -58 62 -61 299 -61 193 0 220 2 253 19 70 36 74 54 70 323 -3 236 -3 236
-28 264 -46 49 -72 54 -297 54 -151 -1 -216 -4 -238 -14z m425 -316 l0 -180
-185 0 -185 0 0 180 0 180 185 0 185 0 0 -180z"/>
<path d="M3315 1371 c-68 -41 -70 -51 -70 -308 0 -218 1 -233 21 -259 11 -15
33 -37 48 -48 26 -20 41 -21 254 -21 210 0 230 2 262 20 66 39 71 61 68 320
-4 326 7 315 -330 315 -200 0 -226 -2 -253 -19z m443 -308 l2 -183 -185 0
-185 0 0 185 0 185 183 -2 182 -3 3 -182z"/>
<path d="M4123 1370 c-59 -36 -63 -54 -63 -307 0 -335 -7 -328 330 -328 220 0
226 1 258 23 59 43 62 57 62 309 0 334 11 323 -327 323 -208 0 -231 -2 -260
-20z m447 -305 l0 -185 -185 0 -185 0 0 185 0 185 185 0 185 0 0 -185z"/>
</g>
</svg>
